<?xml version="1.0" ?><svg enable-background="new 0 0 232 232" id="music" version="1.1" viewBox="0 0 232 232" xml:space="preserve" xmlns="http://www.w3.org/2000/svg" xmlns:xlink="http://www.w3.org/1999/xlink"><g><path d="M116,0C52.0391,0,0,52.0373,0,116c0,63.9629,52.0391,116,116,116c63.9607,0,116-52.0371,116-116   C232,52.0373,179.9607,0,116,0z M116,224C56.4491,224,8,175.5509,8,116C8,56.4493,56.4491,8,116,8c59.5507,0,108,48.4493,108,108   C224,175.5509,175.5507,224,116,224z"/><path d="M175.9763,76.8085c0.012-11.8904,0.0237-23.1228-0.1756-34.2068c-0.0624-3.2424-2.0744-5.3008-5.254-5.3712   c-1.91-0.0585-3.8124,0.08-5.7187,0.2148l-0.9725,0.0664c-10.3672,0.68-20.508,1.4123-30.6292,2.8908   c-18.2888,2.672-34.5468,6.91-49.7108,12.9608c-1.91,0.7656-3.0936,2.3087-3.332,4.336c-0.168,1.418-0.1755,2.834-0.1755,4.3476   c-0.008,27.1251-0.016,54.25,0.0075,81.4668c-8.9884-1.7052-17.41,0.2208-25.1092,5.7303c-4.7072,3.3673-7.93,7.6349-9.5783,12.676   c-2.5977,7.9101-1.4217,14.9941,3.4883,21.0565c2.418,2.9808,5.5664,4.504,8.328,5.6955c4.4064,1.9025,8.7736,2.8533,13.082,2.8533   c6.4728,0,12.8128-2.1444,18.9532-6.4236c6.8205-4.75,10.5276-11.6232,10.7228-19.8768c0.0937-3.9496,0.0977-7.8969,0.1017-11.846   l0.0075-3.3924c0.0196-6.2128,0-12.426-0.0155-18.6388c-0.0353-11.2892-0.0705-22.9608,0.1447-34.4552   c0-0.068,0.0036-0.1344,0.0036-0.1992c0.0628-0.0176,0.1292-0.0368,0.1992-0.0564c11.8556-3.4572,23.7656-6.168,35.3948-8.0569   c7.7577-1.2595,14.2577-2.0175,20.2068-2.3495c-0.0232,13.7032-0.0272,27.4024,0.004,41.1036   c-1.3828-0.2792-2.8592-0.4824-4.4064-0.5272c-10.4372-0.3069-18.8707,3.1992-25.3164,10.3984   c-4.8672,5.4392-6.914,11.8672-5.918,18.5876c1.2152,8.2364,6.1644,14.0996,14.7032,17.426   c8.926,3.4764,18.0508,2.6404,27.1328-2.496v-0.002C171.2107,165.5917,176,157.4221,176,147.0957v-46.7304   C175.9607,91.9825,175.9687,84.2073,175.9763,76.8085z M168,147.0957c0,7.4824-3.2033,12.9336-9.7929,16.664   c-6.9844,3.9456-13.6172,4.6096-20.2892,2.006c-5.828-2.2697-8.9064-5.8104-9.6952-11.1424   c-0.6524-4.418,0.6444-8.3692,3.9648-12.082c4.8672-5.4396,11.0896-7.9788,19.1208-7.7384   c2.176,0.0644,4.3517,0.6308,6.1917,1.1756c0.668,0.1972,2.7031,0.8008,4.5703-0.5876c0.8632-0.6448,1.8904-1.8989,1.8904-4.2229   c-0.0468-15.9295-0.0428-31.8575-0.0076-47.7791c0.0076-1.6428-0.4924-2.9612-1.4844-3.924   c-0.9884-0.9552-2.34-1.3732-3.926-1.3572c-7.0624,0.236-14.7147,1.0544-24.0856,2.576   c-11.9531,1.9412-24.1836,4.7248-36.3868,8.2832c-4.676,1.3592-5.84,2.8868-5.9296,7.8144c-0.2152,11.5432-0.18,23.26-0.1447,34.59   c0.0155,6.1972,0.0351,12.3924,0.0155,18.5896l-0.0075,3.4084c-0.004,3.8888-0.008,7.7752-0.1017,11.666   c-0.1328,5.6796-2.586,10.2244-7.2932,13.504c-7.9176,5.5136-15.8672,6.4276-24.2928,2.7887   c-2.4728-1.0683-4.1288-1.9647-5.2812-3.3903c-3.1796-3.92-3.8476-8.2168-2.1056-13.5276c1.1252-3.4392,3.2968-6.2712,6.6328-8.66   c4.512-3.2284,9.2148-4.832,14.2268-4.832c2.5116,0,5.0976,0.4004,7.7772,1.2012c0.6756,0.2032,2.746,0.8164,4.5977-0.5624   c1.8555-1.3849,1.8555-3.5489,1.8555-4.264C87.992,118.8789,88,90.4649,88.008,61.9533c0-0.59-0.004-1.178,0.0155-1.7676   c14.1328-5.4924,29.32-9.3788,46.3592-11.8672c9.828-1.4356,19.7968-2.1545,30-2.8244l1-0.0684   c0.8204-0.0564,1.6408-0.1152,2.4608-0.156c0.1525,10.1952,0.1448,20.582,0.1328,31.5312   c-0.0076,7.412-0.0156,15.2031,0.0237,23.584V147.0957z"/></g></svg>